<svg xmlns="http://www.w3.org/2000/svg" width="24" height="24" viewBox="0 0 24 24">
    <path fill="#262626" fill-rule="evenodd" d="M11.828 2c5.427 0 9.828 4.4 9.828 9.828 0 5.427-4.4 9.827-9.828 9.827C6.4 21.655 2 17.255 2 11.828 2 6.4 6.4 2 11.828 2zm0 1C6.952 3 3 6.952 3 11.828c0 4.875 3.952 8.827 8.828 8.827 4.875 0 8.828-3.952 8.828-8.827C20.656 6.952 16.703 3 11.828 3zm3.192 4.928l.708.707-3.193 3.193 3.193 3.193-.708.707-3.192-3.193-3.192 3.192-.708-.707 3.193-3.192-3.193-3.192.708-.707 3.192 3.192 3.192-3.193z"/>
</svg>
